<svg width="300" height="180" xmlns="http://www.w3.org/2000/svg">

 <g>
  <title>cloud 1</title>
  <path stroke="null" id="svg_1" fill="white" d="m245.08207,54.12427c-2.16185,0 -2.16185,0 -4.3237,0c-6.4834,-16.32892 -23.77176,-28.57469 -43.21981,-28.57469c-6.4834,0 -10.80495,2.04106 -17.28835,2.04106c-6.4834,-16.32892 -21.60991,-26.53444 -41.06011,-26.53444c-17.28814,2.04127 -32.41529,12.24679 -38.89847,26.53444c-2.16099,0 -4.32198,0 -6.48319,0c-19.44934,0 -36.73748,14.28846 -38.89847,32.65722c-2.16121,0 -6.48319,0 -8.64418,0c-23.77154,0 -43.22089,18.37079 -43.22089,40.82331c0,22.45251 19.44934,40.82128 43.22089,40.82128c0,0 0,0 2.16099,0c4.32198,16.32892 19.44934,28.57611 38.89869,28.57611c15.12715,0 28.09352,-8.16547 34.57649,-18.37079c8.64504,16.32892 28.09309,26.53424 47.5433,26.53424c21.60991,0 41.06011,-12.24517 49.70321,-30.61596c8.64525,4.08172 17.28835,6.1236 25.9336,6.1236c28.09331,0 51.86292,-22.45251 51.86292,-48.98675c0,-28.57611 -23.76961,-51.02862 -51.86292,-51.02862z"/>
 </g>
</svg>