<svg width="600" height="300" xmlns="http://www.w3.org/2000/svg">

 <g>
  <title>Layer 1</title>
  <g stroke="null" id="svg_1">
   <path stroke="null" d="m485.47731,111.44336c-9.77332,0 -24.43524,0 -34.20953,4.30256c-14.66192,-60.27171 -73.30912,-107.6289 -151.50489,-111.93445c-73.30863,-4.30512 -136.84297,34.44183 -161.27918,94.71568c-58.6472,-4.30683 -112.40691,38.74439 -117.29415,94.71183c-4.88724,55.97172 43.98503,103.32549 107.51937,103.32549c34.21099,0 63.53434,-8.60939 83.0834,-25.82817c19.54907,12.91622 43.98527,17.21878 73.30863,17.21878c48.87242,4.30683 92.85769,-12.91622 122.18153,-43.05122c14.66143,17.21878 39.09764,30.135 68.42148,30.135c53.76054,4.30683 97.7429,-34.44183 97.7429,-77.49305c4.88909,-43.05122 -34.20904,-81.79988 -87.96958,-86.10244z" fill="white" id="svg_2"/>
  </g>
 </g>
</svg>