<svg width="400" height="300" xmlns="http://www.w3.org/2000/svg">
 <g>
  <title>Layer 1</title>
  <g stroke="null" id="svg_1">
   <path stroke="null" id="svg_2" fill="white" d="m339.61016,105.60072c-2.95297,0 -5.90901,0 -5.90901,0c-11.82108,-28.07563 -35.46017,-46.79258 -65.00827,-46.79258c-14.77711,0 -26.59513,3.11949 -35.46017,12.47804c-5.91207,-21.83655 -26.59513,-34.31458 -47.28125,-34.31458c-26.59513,0 -47.28125,18.71705 -50.23422,43.67312c-5.91207,-6.23892 -14.77619,-9.35854 -26.59635,-9.35854c-20.68489,0 -41.3701,18.71709 -41.3701,40.55379c-38.41529,-3.11962 -65.01011,24.95601 -65.01011,62.38985c0,37.43417 26.59482,65.5098 62.05499,65.5098c11.82016,0 20.6852,-3.1193 29.55024,-9.35854c2.95481,21.83671 20.68489,40.55379 44.32429,40.55379c17.73008,0 32.5072,-9.35854 41.37224,-24.95633c11.81801,18.71709 35.46017,31.19525 59.09926,31.19525c32.50413,0 62.0553,-21.83671 70.92034,-56.15126c8.86504,3.11962 17.73008,6.23924 26.59513,6.23924c32.50413,0 59.09926,-28.07563 59.09926,-62.39018c2.95604,-31.19525 -23.63909,-59.27088 -56.14629,-59.27088z"/>
  </g>
 </g>

</svg>